- 
http://www.Speed.Cd 
       
http://www.Speed.Cd       the fast  and The Hottest Private Tracker on the net

(((--Registration will be open on june every weekend--)))

Please Seed back to make the speed Faster!!!

and don't forget to visit      ...... http://www.Speed.Cd..........
-[img]http://noob.hu/2011/05/27/Rango.jpg[img]                                        
 

                  ::::::::::::  EP1C Presents  ::::::::::::

::File:: Rango.2011.DVDSCR.AC3.XViD-EP1C

::Video Source:: 3LTON

::Language:::::: English
::IMDB:::::::::: http://www.imdb.com/title/tt1192628/

Rango is an ordinary chameleon who accidentally winds up in the town of 
Dirt, a lawless outpost in the Wild West in desperate need of a new sheriff.

::Specs:::::::::

Format                           : AVI
Format/Info                      : Audio Video Interleave
File size                        : 700 MiB
Duration                         : 1h 47mn
Overall bit rate                 : 912 Kbps
Writing application              : VirtualDubMod 1.5.10.2 (build 2540/release)
Writing library                  : VirtualDubMod build 2540/release

Video
ID                               : 0
Format                           : MPEG-4 Visual
Format profile                   : Advanced Simple@L5
Format settings, BVOP            : Yes
Format settings, QPel            : No
Format settings, GMC             : No warppoints
Format settings, Matrix          : Default (H.263)
Codec ID                         : XVID
Codec ID/Hint                    : XviD
Duration                         : 1h 47mn
Bit rate                         : 711 Kbps
Width                            : 640 pixels
Height                           : 272 pixels
Display aspect ratio             : 2.35:1
Frame rate                       : 23.976 fps
Color space                      : YUV
Chroma subsampling               : 4:2:0
Bit depth                        : 8 bits
Scan type                        : Progressive
Bits/(Pixel*Frame)               : 0.170
Stream size                      : 545 MiB (78%)
Writing library                  : XviD 1.2.1 (UTC 2008-12-04)

Audio
ID                               : 1
Format                           : AC-3
Format/Info                      : Audio Coding 3
Mode extension                   : CM (complete main)
Codec ID                         : 2000
Duration                         : 1h 47mn
Bit rate mode                    : Constant
Bit rate                         : 192 Kbps
Channel(s)                       : 2 channels
Channel positions                : Front: L R
Sampling rate                    : 48.0 KHz
Bit depth                        : 16 bits
Stream size                      : 147 MiB (21%)
Alignment                        : Split accross interleaves
Interleave, duration             : 42 ms (1.00 video frame)
Interleave, preload duration     : 500 ms

::NOTES::::::::: 
Presents Rango DVDSCR.

Enjoy. //iNK

:: Got something we might be interested in? contact us: epic@hushmail.me ::

::::::::::::::::::::::::::::::::  RESPECT  :::::::::::::::::::::::::::::::::
IMAGiNE, Rx, FLAWL3SS, ViSiON, T0XiC, HiVE, bobwhite & All Our Friends!

                 ::::::::::::::::  We Are  ::::::::::::::::  
               :::::: Surpassing the usual or ordinary ::::::
::::::::::::::::::    Heroic and impressive in quality    ::::::::::::::::::     
 ::::::::::::::::::::::::::::::::   EP1C   ::::::::::::::::::::::::::::::::

[img]http://noob.hu/2011/05/27/vlcsnap-2011-05-26-23h31m54s203_0.png[/img]
[img]http://noob.hu/2011/05/27/vlcsnap-2011-05-26-23h32m19s204_0.png[/img]
[img]http://noob.hu/2011/05/27/vlcsnap-2011-05-26-23h43m45s130.png[/img]
[img]http://noob.hu/2011/05/27/vlcsnap-2011-05-26-23h44m00s17.png[/img]
[img]http://noob.hu/2011/05/27/vlcsnap-2011-05-26-23h45m18s54.png[/img]